<?xml version="1.0" encoding="UTF-8" standalone="no"?>
<!DOCTYPE svg PUBLIC "-//W3C//DTD SVG 1.1//EN"
 "http://www.w3.org/Graphics/SVG/1.1/DTD/svg11.dtd">
<!-- Generated by graphviz version 2.46.1 (20210213.1702)
 -->
<!-- Title: G Pages: 1 -->
<svg width="1045pt" height="456pt"
 viewBox="0.00 0.00 1045.20 456.10" xmlns="http://www.w3.org/2000/svg" xmlns:xlink="http://www.w3.org/1999/xlink">
<g id="graph0" class="graph" transform="scale(1 1) rotate(0) translate(21.6 434.5)">
<title>G</title>
<polygon fill="#111111" stroke="transparent" points="-21.6,21.6 -21.6,-434.5 1023.6,-434.5 1023.6,21.6 -21.6,21.6"/>
<!-- controllers/coursesController.js -->
<g id="node1" class="node">
<title>controllers/coursesController.js</title>
<path fill="none" stroke="#c6c5fe" d="M652.33,-165.68C652.33,-165.68 466.67,-165.68 466.67,-165.68 462.83,-165.68 459,-161.85 459,-158.02 459,-158.02 459,-150.35 459,-150.35 459,-146.52 462.83,-142.68 466.67,-142.68 466.67,-142.68 652.33,-142.68 652.33,-142.68 656.17,-142.68 660,-146.52 660,-150.35 660,-150.35 660,-158.02 660,-158.02 660,-161.85 656.17,-165.68 652.33,-165.68"/>
<text text-anchor="middle" x="559.5" y="-150.48" font-family="Arial" font-size="14.00" fill="#c6c5fe">controllers/coursesController.js</text>
</g>
<!-- models/course.js -->
<g id="node2" class="node">
<title>models/course.js</title>
<path fill="none" stroke="#cfffac" d="M818.33,-165.68C818.33,-165.68 714.67,-165.68 714.67,-165.68 710.83,-165.68 707,-161.85 707,-158.02 707,-158.02 707,-150.35 707,-150.35 707,-146.52 710.83,-142.68 714.67,-142.68 714.67,-142.68 818.33,-142.68 818.33,-142.68 822.17,-142.68 826,-146.52 826,-150.35 826,-150.35 826,-158.02 826,-158.02 826,-161.85 822.17,-165.68 818.33,-165.68"/>
<text text-anchor="middle" x="766.5" y="-150.48" font-family="Arial" font-size="14.00" fill="#cfffac">models/course.js</text>
</g>
<!-- controllers/coursesController.js&#45;&gt;models/course.js -->
<g id="edge1" class="edge">
<title>controllers/coursesController.js&#45;&gt;models/course.js</title>
<path fill="none" stroke="#757575" d="M660.3,-154.18C672.66,-154.18 685.08,-154.18 696.83,-154.18"/>
<polygon fill="#757575" stroke="#757575" points="696.96,-157.68 706.96,-154.18 696.96,-150.68 696.96,-157.68"/>
</g>
<!-- models/user.js -->
<g id="node3" class="node">
<title>models/user.js</title>
<path fill="none" stroke="#c6c5fe" d="M810.83,-124.68C810.83,-124.68 722.17,-124.68 722.17,-124.68 718.33,-124.68 714.5,-120.85 714.5,-117.02 714.5,-117.02 714.5,-109.35 714.5,-109.35 714.5,-105.52 718.33,-101.68 722.17,-101.68 722.17,-101.68 810.83,-101.68 810.83,-101.68 814.67,-101.68 818.5,-105.52 818.5,-109.35 818.5,-109.35 818.5,-117.02 818.5,-117.02 818.5,-120.85 814.67,-124.68 810.83,-124.68"/>
<text text-anchor="middle" x="766.5" y="-109.48" font-family="Arial" font-size="14.00" fill="#c6c5fe">models/user.js</text>
</g>
<!-- controllers/coursesController.js&#45;&gt;models/user.js -->
<g id="edge2" class="edge">
<title>controllers/coursesController.js&#45;&gt;models/user.js</title>
<path fill="none" stroke="#757575" d="M626.61,-142.66C641.25,-139.99 656.67,-137.07 671,-134.18 682.09,-131.95 693.87,-129.44 705.23,-126.95"/>
<polygon fill="#757575" stroke="#757575" points="706.05,-130.35 715.06,-124.78 704.54,-123.52 706.05,-130.35"/>
</g>
<!-- models/subscriber.js -->
<g id="node7" class="node">
<title>models/subscriber.js</title>
<path fill="none" stroke="#cfffac" d="M994.33,-164.68C994.33,-164.68 869.67,-164.68 869.67,-164.68 865.83,-164.68 862,-160.85 862,-157.02 862,-157.02 862,-149.35 862,-149.35 862,-145.52 865.83,-141.68 869.67,-141.68 869.67,-141.68 994.33,-141.68 994.33,-141.68 998.17,-141.68 1002,-145.52 1002,-149.35 1002,-149.35 1002,-157.02 1002,-157.02 1002,-160.85 998.17,-164.68 994.33,-164.68"/>
<text text-anchor="middle" x="932" y="-149.48" font-family="Arial" font-size="14.00" fill="#cfffac">models/subscriber.js</text>
</g>
<!-- models/user.js&#45;&gt;models/subscriber.js -->
<g id="edge12" class="edge">
<title>models/user.js&#45;&gt;models/subscriber.js</title>
<path fill="none" stroke="#757575" d="M814.79,-124.75C833.26,-129.27 854.61,-134.49 873.92,-139.22"/>
<polygon fill="#757575" stroke="#757575" points="873.27,-142.66 883.82,-141.64 874.93,-135.86 873.27,-142.66"/>
</g>
<!-- controllers/errorController.js -->
<g id="node4" class="node">
<title>controllers/errorController.js</title>
<path fill="none" stroke="#cfffac" d="M642.83,-308.68C642.83,-308.68 476.17,-308.68 476.17,-308.68 472.33,-308.68 468.5,-304.85 468.5,-301.02 468.5,-301.02 468.5,-293.35 468.5,-293.35 468.5,-289.52 472.33,-285.68 476.17,-285.68 476.17,-285.68 642.83,-285.68 642.83,-285.68 646.67,-285.68 650.5,-289.52 650.5,-293.35 650.5,-293.35 650.5,-301.02 650.5,-301.02 650.5,-304.85 646.67,-308.68 642.83,-308.68"/>
<text text-anchor="middle" x="559.5" y="-293.48" font-family="Arial" font-size="14.00" fill="#cfffac">controllers/errorController.js</text>
</g>
<!-- controllers/homeController.js -->
<g id="node5" class="node">
<title>controllers/homeController.js</title>
<path fill="none" stroke="#cfffac" d="M645.83,-257.68C645.83,-257.68 473.17,-257.68 473.17,-257.68 469.33,-257.68 465.5,-253.85 465.5,-250.02 465.5,-250.02 465.5,-242.35 465.5,-242.35 465.5,-238.52 469.33,-234.68 473.17,-234.68 473.17,-234.68 645.83,-234.68 645.83,-234.68 649.67,-234.68 653.5,-238.52 653.5,-242.35 653.5,-242.35 653.5,-250.02 653.5,-250.02 653.5,-253.85 649.67,-257.68 645.83,-257.68"/>
<text text-anchor="middle" x="559.5" y="-242.48" font-family="Arial" font-size="14.00" fill="#cfffac">controllers/homeController.js</text>
</g>
<!-- controllers/subscribersController.js -->
<g id="node6" class="node">
<title>controllers/subscribersController.js</title>
<path fill="none" stroke="#c6c5fe" d="M663.33,-368.68C663.33,-368.68 455.67,-368.68 455.67,-368.68 451.83,-368.68 448,-364.85 448,-361.02 448,-361.02 448,-353.35 448,-353.35 448,-349.52 451.83,-345.68 455.67,-345.68 455.67,-345.68 663.33,-345.68 663.33,-345.68 667.17,-345.68 671,-349.52 671,-353.35 671,-353.35 671,-361.02 671,-361.02 671,-364.85 667.17,-368.68 663.33,-368.68"/>
<text text-anchor="middle" x="559.5" y="-353.48" font-family="Arial" font-size="14.00" fill="#c6c5fe">controllers/subscribersController.js</text>
</g>
<!-- controllers/subscribersController.js&#45;&gt;models/subscriber.js -->
<g id="edge3" class="edge">
<title>controllers/subscribersController.js&#45;&gt;models/subscriber.js</title>
<path fill="none" stroke="#757575" d="M599.98,-345.65C621.46,-338.78 648.22,-329.26 671,-318.18 763.18,-273.38 863.12,-203.14 907.49,-170.7"/>
<polygon fill="#757575" stroke="#757575" points="909.62,-173.47 915.61,-164.73 905.48,-167.83 909.62,-173.47"/>
</g>
<!-- controllers/usersController.js -->
<g id="node8" class="node">
<title>controllers/usersController.js</title>
<path fill="none" stroke="#c6c5fe" d="M645.33,-124.68C645.33,-124.68 473.67,-124.68 473.67,-124.68 469.83,-124.68 466,-120.85 466,-117.02 466,-117.02 466,-109.35 466,-109.35 466,-105.52 469.83,-101.68 473.67,-101.68 473.67,-101.68 645.33,-101.68 645.33,-101.68 649.17,-101.68 653,-105.52 653,-109.35 653,-109.35 653,-117.02 653,-117.02 653,-120.85 649.17,-124.68 645.33,-124.68"/>
<text text-anchor="middle" x="559.5" y="-109.48" font-family="Arial" font-size="14.00" fill="#c6c5fe">controllers/usersController.js</text>
</g>
<!-- controllers/usersController.js&#45;&gt;models/user.js -->
<g id="edge4" class="edge">
<title>controllers/usersController.js&#45;&gt;models/user.js</title>
<path fill="none" stroke="#757575" d="M653.1,-113.18C670.34,-113.18 687.95,-113.18 703.96,-113.18"/>
<polygon fill="#757575" stroke="#757575" points="704.24,-116.68 714.24,-113.18 704.24,-109.68 704.24,-116.68"/>
</g>
<!-- main.js -->
<g id="node9" class="node">
<title>main.js</title>
<path fill="none" stroke="#c6c5fe" d="M52.33,-226.68C52.33,-226.68 7.67,-226.68 7.67,-226.68 3.83,-226.68 0,-222.85 0,-219.02 0,-219.02 0,-211.35 0,-211.35 0,-207.52 3.83,-203.68 7.67,-203.68 7.67,-203.68 52.33,-203.68 52.33,-203.68 56.17,-203.68 60,-207.52 60,-211.35 60,-211.35 60,-219.02 60,-219.02 60,-222.85 56.17,-226.68 52.33,-226.68"/>
<text text-anchor="middle" x="30" y="-211.48" font-family="Arial" font-size="14.00" fill="#c6c5fe">main.js</text>
</g>
<!-- main.js&#45;&gt;controllers/coursesController.js -->
<g id="edge5" class="edge">
<title>main.js&#45;&gt;controllers/coursesController.js</title>
<path fill="none" stroke="#757575" d="M44.67,-203.38C75.94,-177.26 156.13,-115.15 236,-93.18 311.42,-72.44 340.74,-60.92 412,-93.18 434.09,-103.19 426.89,-122.25 448,-134.18 450.93,-135.84 453.96,-137.36 457.08,-138.76"/>
<polygon fill="#757575" stroke="#757575" points="456.05,-142.12 466.63,-142.61 458.66,-135.63 456.05,-142.12"/>
</g>
<!-- main.js&#45;&gt;models/user.js -->
<g id="edge10" class="edge">
<title>main.js&#45;&gt;models/user.js</title>
<path fill="none" stroke="#757575" d="M32.14,-203.35C35.63,-174.3 48.99,-99.42 96,-66.18 298.52,76.99 627.11,-50.42 732.12,-97.43"/>
<polygon fill="#757575" stroke="#757575" points="730.73,-100.65 741.29,-101.59 733.62,-94.27 730.73,-100.65"/>
</g>
<!-- main.js&#45;&gt;controllers/errorController.js -->
<g id="edge6" class="edge">
<title>main.js&#45;&gt;controllers/errorController.js</title>
<path fill="none" stroke="#757575" d="M40.01,-226.83C66.01,-259.29 145.16,-350.27 236,-378.18 310.77,-401.16 340.74,-410.45 412,-378.18 434.09,-368.18 427.97,-350.85 448,-337.18 463.93,-326.32 483.15,-318.02 501.07,-311.88"/>
<polygon fill="#757575" stroke="#757575" points="502.44,-315.12 510.86,-308.69 500.27,-308.46 502.44,-315.12"/>
</g>
<!-- main.js&#45;&gt;controllers/homeController.js -->
<g id="edge7" class="edge">
<title>main.js&#45;&gt;controllers/homeController.js</title>
<path fill="none" stroke="#757575" d="M51.71,-226.72C87.8,-246.09 165.15,-284.38 236,-298.18 312.78,-313.14 336.49,-318.6 412,-298.18 429.88,-293.35 430.94,-284.41 448,-277.18 463.5,-270.62 480.8,-265.01 497.02,-260.44"/>
<polygon fill="#757575" stroke="#757575" points="498.23,-263.74 506.96,-257.73 496.39,-256.99 498.23,-263.74"/>
</g>
<!-- main.js&#45;&gt;controllers/subscribersController.js -->
<g id="edge8" class="edge">
<title>main.js&#45;&gt;controllers/subscribersController.js</title>
<path fill="none" stroke="#757575" d="M34.17,-226.79C41.32,-250.96 60.88,-307.19 96,-340.18 145.6,-386.77 169.42,-388.1 236,-402.18 312.53,-418.37 334.64,-413.8 412,-402.18 449.82,-396.51 491.36,-383.02 520.52,-372.28"/>
<polygon fill="#757575" stroke="#757575" points="521.77,-375.54 529.91,-368.76 519.31,-368.99 521.77,-375.54"/>
</g>
<!-- main.js&#45;&gt;controllers/usersController.js -->
<g id="edge9" class="edge">
<title>main.js&#45;&gt;controllers/usersController.js</title>
<path fill="none" stroke="#757575" d="M34.3,-203.5C41.46,-180.37 60.69,-128.66 96,-102.18 147.22,-63.76 172.42,-75.79 236,-68.18 313.67,-58.89 334.64,-56.57 412,-68.18 449.82,-73.86 491.36,-87.35 520.52,-98.09"/>
<polygon fill="#757575" stroke="#757575" points="519.31,-101.38 529.91,-101.61 521.77,-94.82 519.31,-101.38"/>
</g>
<!-- routes/index.js -->
<g id="node10" class="node">
<title>routes/index.js</title>
<path fill="none" stroke="#c6c5fe" d="M192.33,-226.68C192.33,-226.68 103.67,-226.68 103.67,-226.68 99.83,-226.68 96,-222.85 96,-219.02 96,-219.02 96,-211.35 96,-211.35 96,-207.52 99.83,-203.68 103.67,-203.68 103.67,-203.68 192.33,-203.68 192.33,-203.68 196.17,-203.68 200,-207.52 200,-211.35 200,-211.35 200,-219.02 200,-219.02 200,-222.85 196.17,-226.68 192.33,-226.68"/>
<text text-anchor="middle" x="148" y="-211.48" font-family="Arial" font-size="14.00" fill="#c6c5fe">routes/index.js</text>
</g>
<!-- main.js&#45;&gt;routes/index.js -->
<g id="edge11" class="edge">
<title>main.js&#45;&gt;routes/index.js</title>
<path fill="none" stroke="#757575" d="M60.27,-215.18C67.99,-215.18 76.62,-215.18 85.35,-215.18"/>
<polygon fill="#757575" stroke="#757575" points="85.61,-218.68 95.61,-215.18 85.61,-211.68 85.61,-218.68"/>
</g>
<!-- routes/apiRoutes.js -->
<g id="node11" class="node">
<title>routes/apiRoutes.js</title>
<path fill="none" stroke="#c6c5fe" d="M382.33,-206.68C382.33,-206.68 265.67,-206.68 265.67,-206.68 261.83,-206.68 258,-202.85 258,-199.02 258,-199.02 258,-191.35 258,-191.35 258,-187.52 261.83,-183.68 265.67,-183.68 265.67,-183.68 382.33,-183.68 382.33,-183.68 386.17,-183.68 390,-187.52 390,-191.35 390,-191.35 390,-199.02 390,-199.02 390,-202.85 386.17,-206.68 382.33,-206.68"/>
<text text-anchor="middle" x="324" y="-191.48" font-family="Arial" font-size="14.00" fill="#c6c5fe">routes/apiRoutes.js</text>
</g>
<!-- routes/index.js&#45;&gt;routes/apiRoutes.js -->
<g id="edge17" class="edge">
<title>routes/index.js&#45;&gt;routes/apiRoutes.js</title>
<path fill="none" stroke="#757575" d="M200.26,-209.29C215.07,-207.59 231.54,-205.7 247.49,-203.86"/>
<polygon fill="#757575" stroke="#757575" points="248.33,-207.29 257.87,-202.67 247.53,-200.34 248.33,-207.29"/>
</g>
<!-- routes/courseRoutes.js -->
<g id="node12" class="node">
<title>routes/courseRoutes.js</title>
<path fill="none" stroke="#c6c5fe" d="M393.83,-165.68C393.83,-165.68 254.17,-165.68 254.17,-165.68 250.33,-165.68 246.5,-161.85 246.5,-158.02 246.5,-158.02 246.5,-150.35 246.5,-150.35 246.5,-146.52 250.33,-142.68 254.17,-142.68 254.17,-142.68 393.83,-142.68 393.83,-142.68 397.67,-142.68 401.5,-146.52 401.5,-150.35 401.5,-150.35 401.5,-158.02 401.5,-158.02 401.5,-161.85 397.67,-165.68 393.83,-165.68"/>
<text text-anchor="middle" x="324" y="-150.48" font-family="Arial" font-size="14.00" fill="#c6c5fe">routes/courseRoutes.js</text>
</g>
<!-- routes/index.js&#45;&gt;routes/courseRoutes.js -->
<g id="edge18" class="edge">
<title>routes/index.js&#45;&gt;routes/courseRoutes.js</title>
<path fill="none" stroke="#757575" d="M171.04,-203.6C188.34,-194.87 213.23,-183.08 236,-175.18 243.23,-172.68 250.89,-170.36 258.55,-168.25"/>
<polygon fill="#757575" stroke="#757575" points="259.46,-171.63 268.23,-165.69 257.67,-164.86 259.46,-171.63"/>
</g>
<!-- routes/errorRoutes.js -->
<g id="node13" class="node">
<title>routes/errorRoutes.js</title>
<path fill="none" stroke="#c6c5fe" d="M387.83,-288.68C387.83,-288.68 260.17,-288.68 260.17,-288.68 256.33,-288.68 252.5,-284.85 252.5,-281.02 252.5,-281.02 252.5,-273.35 252.5,-273.35 252.5,-269.52 256.33,-265.68 260.17,-265.68 260.17,-265.68 387.83,-265.68 387.83,-265.68 391.67,-265.68 395.5,-269.52 395.5,-273.35 395.5,-273.35 395.5,-281.02 395.5,-281.02 395.5,-284.85 391.67,-288.68 387.83,-288.68"/>
<text text-anchor="middle" x="324" y="-273.48" font-family="Arial" font-size="14.00" fill="#c6c5fe">routes/errorRoutes.js</text>
</g>
<!-- routes/index.js&#45;&gt;routes/errorRoutes.js -->
<g id="edge19" class="edge">
<title>routes/index.js&#45;&gt;routes/errorRoutes.js</title>
<path fill="none" stroke="#757575" d="M169.53,-226.72C186.82,-236.03 212.42,-248.9 236,-257.18 241.95,-259.27 248.21,-261.21 254.52,-262.97"/>
<polygon fill="#757575" stroke="#757575" points="253.89,-266.43 264.46,-265.62 255.69,-259.67 253.89,-266.43"/>
</g>
<!-- routes/homeRoutes.js -->
<g id="node14" class="node">
<title>routes/homeRoutes.js</title>
<path fill="none" stroke="#c6c5fe" d="M390.83,-247.68C390.83,-247.68 257.17,-247.68 257.17,-247.68 253.33,-247.68 249.5,-243.85 249.5,-240.02 249.5,-240.02 249.5,-232.35 249.5,-232.35 249.5,-228.52 253.33,-224.68 257.17,-224.68 257.17,-224.68 390.83,-224.68 390.83,-224.68 394.67,-224.68 398.5,-228.52 398.5,-232.35 398.5,-232.35 398.5,-240.02 398.5,-240.02 398.5,-243.85 394.67,-247.68 390.83,-247.68"/>
<text text-anchor="middle" x="324" y="-232.48" font-family="Arial" font-size="14.00" fill="#c6c5fe">routes/homeRoutes.js</text>
</g>
<!-- routes/index.js&#45;&gt;routes/homeRoutes.js -->
<g id="edge20" class="edge">
<title>routes/index.js&#45;&gt;routes/homeRoutes.js</title>
<path fill="none" stroke="#757575" d="M200.26,-221.37C212.49,-222.85 225.85,-224.46 239.11,-226.06"/>
<polygon fill="#757575" stroke="#757575" points="238.87,-229.56 249.22,-227.28 239.71,-222.61 238.87,-229.56"/>
</g>
<!-- routes/subscriberRoutes.js -->
<g id="node15" class="node">
<title>routes/subscriberRoutes.js</title>
<path fill="none" stroke="#c6c5fe" d="M404.33,-368.68C404.33,-368.68 243.67,-368.68 243.67,-368.68 239.83,-368.68 236,-364.85 236,-361.02 236,-361.02 236,-353.35 236,-353.35 236,-349.52 239.83,-345.68 243.67,-345.68 243.67,-345.68 404.33,-345.68 404.33,-345.68 408.17,-345.68 412,-349.52 412,-353.35 412,-353.35 412,-361.02 412,-361.02 412,-364.85 408.17,-368.68 404.33,-368.68"/>
<text text-anchor="middle" x="324" y="-353.48" font-family="Arial" font-size="14.00" fill="#c6c5fe">routes/subscriberRoutes.js</text>
</g>
<!-- routes/index.js&#45;&gt;routes/subscriberRoutes.js -->
<g id="edge21" class="edge">
<title>routes/index.js&#45;&gt;routes/subscriberRoutes.js</title>
<path fill="none" stroke="#757575" d="M159.98,-226.83C175.97,-243.49 206.92,-274.72 236,-298.18 254.99,-313.51 277.87,-328.92 295.4,-340.14"/>
<polygon fill="#757575" stroke="#757575" points="293.71,-343.22 304.03,-345.61 297.46,-337.3 293.71,-343.22"/>
</g>
<!-- routes/userRoutes.js -->
<g id="node16" class="node">
<title>routes/userRoutes.js</title>
<path fill="none" stroke="#c6c5fe" d="M386.33,-124.68C386.33,-124.68 261.67,-124.68 261.67,-124.68 257.83,-124.68 254,-120.85 254,-117.02 254,-117.02 254,-109.35 254,-109.35 254,-105.52 257.83,-101.68 261.67,-101.68 261.67,-101.68 386.33,-101.68 386.33,-101.68 390.17,-101.68 394,-105.52 394,-109.35 394,-109.35 394,-117.02 394,-117.02 394,-120.85 390.17,-124.68 386.33,-124.68"/>
<text text-anchor="middle" x="324" y="-109.48" font-family="Arial" font-size="14.00" fill="#c6c5fe">routes/userRoutes.js</text>
</g>
<!-- routes/index.js&#45;&gt;routes/userRoutes.js -->
<g id="edge22" class="edge">
<title>routes/index.js&#45;&gt;routes/userRoutes.js</title>
<path fill="none" stroke="#757575" d="M158.07,-203.54C172.57,-185.77 202.74,-152.07 236,-134.18 240.04,-132.01 244.29,-130.07 248.67,-128.32"/>
<polygon fill="#757575" stroke="#757575" points="250.2,-131.49 258.41,-124.8 247.82,-124.91 250.2,-131.49"/>
</g>
<!-- routes/apiRoutes.js&#45;&gt;controllers/coursesController.js -->
<g id="edge13" class="edge">
<title>routes/apiRoutes.js&#45;&gt;controllers/coursesController.js</title>
<path fill="none" stroke="#757575" d="M390.04,-183.76C418.9,-178.7 453.03,-172.7 483,-167.44"/>
<polygon fill="#757575" stroke="#757575" points="483.75,-170.86 493,-165.69 482.54,-163.97 483.75,-170.86"/>
</g>
<!-- routes/courseRoutes.js&#45;&gt;controllers/coursesController.js -->
<g id="edge14" class="edge">
<title>routes/courseRoutes.js&#45;&gt;controllers/coursesController.js</title>
<path fill="none" stroke="#757575" d="M401.78,-154.18C416.72,-154.18 432.65,-154.18 448.42,-154.18"/>
<polygon fill="#757575" stroke="#757575" points="448.74,-157.68 458.74,-154.18 448.74,-150.68 448.74,-157.68"/>
</g>
<!-- routes/errorRoutes.js&#45;&gt;controllers/errorController.js -->
<g id="edge15" class="edge">
<title>routes/errorRoutes.js&#45;&gt;controllers/errorController.js</title>
<path fill="none" stroke="#757575" d="M395.69,-283.24C415.3,-284.92 436.98,-286.78 457.94,-288.57"/>
<polygon fill="#757575" stroke="#757575" points="457.9,-292.08 468.16,-289.45 458.5,-285.11 457.9,-292.08"/>
</g>
<!-- routes/homeRoutes.js&#45;&gt;controllers/homeController.js -->
<g id="edge16" class="edge">
<title>routes/homeRoutes.js&#45;&gt;controllers/homeController.js</title>
<path fill="none" stroke="#757575" d="M398.56,-239.33C416.46,-240.1 435.94,-240.94 454.95,-241.75"/>
<polygon fill="#757575" stroke="#757575" points="455,-245.25 465.14,-242.19 455.3,-238.26 455,-245.25"/>
</g>
<!-- routes/subscriberRoutes.js&#45;&gt;controllers/subscribersController.js -->
<g id="edge23" class="edge">
<title>routes/subscriberRoutes.js&#45;&gt;controllers/subscribersController.js</title>
<path fill="none" stroke="#757575" d="M412.28,-357.18C420.57,-357.18 429.06,-357.18 437.59,-357.18"/>
<polygon fill="#757575" stroke="#757575" points="437.6,-360.68 447.6,-357.18 437.6,-353.68 437.6,-360.68"/>
</g>
<!-- routes/userRoutes.js&#45;&gt;controllers/usersController.js -->
<g id="edge24" class="edge">
<title>routes/userRoutes.js&#45;&gt;controllers/usersController.js</title>
<path fill="none" stroke="#757575" d="M394.11,-113.18C413.41,-113.18 434.81,-113.18 455.61,-113.18"/>
<polygon fill="#757575" stroke="#757575" points="455.76,-116.68 465.76,-113.18 455.76,-109.68 455.76,-116.68"/>
</g>
</g>
</svg>
