<?xml version="1.0" encoding="UTF-8" standalone="no"?>
<!DOCTYPE svg PUBLIC "-//W3C//DTD SVG 1.1//EN"
 "http://www.w3.org/Graphics/SVG/1.1/DTD/svg11.dtd">
<!-- Generated by graphviz version 2.46.1 (20210213.1702)
 -->
<!-- Title: G Pages: 1 -->
<svg width="1127pt" height="292pt"
 viewBox="0.00 0.00 1127.20 291.50" xmlns="http://www.w3.org/2000/svg" xmlns:xlink="http://www.w3.org/1999/xlink">
<g id="graph0" class="graph" transform="scale(1 1) rotate(0) translate(21.6 269.9)">
<title>G</title>
<polygon fill="#111111" stroke="transparent" points="-21.6,21.6 -21.6,-269.9 1105.6,-269.9 1105.6,21.6 -21.6,21.6"/>
<!-- controllers/coursesController.js -->
<g id="node1" class="node">
<title>controllers/coursesController.js</title>
<path fill="none" stroke="#c6c5fe" d="M641.33,-187C641.33,-187 455.67,-187 455.67,-187 451.83,-187 448,-183.17 448,-179.33 448,-179.33 448,-171.67 448,-171.67 448,-167.83 451.83,-164 455.67,-164 455.67,-164 641.33,-164 641.33,-164 645.17,-164 649,-167.83 649,-171.67 649,-171.67 649,-179.33 649,-179.33 649,-183.17 645.17,-187 641.33,-187"/>
<text text-anchor="middle" x="548.5" y="-171.8" font-family="Arial" font-size="14.00" fill="#c6c5fe">controllers/coursesController.js</text>
</g>
<!-- models/course.js -->
<g id="node2" class="node">
<title>models/course.js</title>
<path fill="none" stroke="#cfffac" d="M848.33,-187C848.33,-187 744.67,-187 744.67,-187 740.83,-187 737,-183.17 737,-179.33 737,-179.33 737,-171.67 737,-171.67 737,-167.83 740.83,-164 744.67,-164 744.67,-164 848.33,-164 848.33,-164 852.17,-164 856,-167.83 856,-171.67 856,-171.67 856,-179.33 856,-179.33 856,-183.17 852.17,-187 848.33,-187"/>
<text text-anchor="middle" x="796.5" y="-171.8" font-family="Arial" font-size="14.00" fill="#cfffac">models/course.js</text>
</g>
<!-- controllers/coursesController.js&#45;&gt;models/course.js -->
<g id="edge1" class="edge">
<title>controllers/coursesController.js&#45;&gt;models/course.js</title>
<path fill="none" stroke="#757575" d="M649.2,-175.5C675.19,-175.5 702.62,-175.5 726.61,-175.5"/>
<polygon fill="#757575" stroke="#757575" points="726.67,-179 736.67,-175.5 726.67,-172 726.67,-179"/>
</g>
<!-- models/user.js -->
<g id="node3" class="node">
<title>models/user.js</title>
<path fill="none" stroke="#c6c5fe" d="M840.83,-228C840.83,-228 752.17,-228 752.17,-228 748.33,-228 744.5,-224.17 744.5,-220.33 744.5,-220.33 744.5,-212.67 744.5,-212.67 744.5,-208.83 748.33,-205 752.17,-205 752.17,-205 840.83,-205 840.83,-205 844.67,-205 848.5,-208.83 848.5,-212.67 848.5,-212.67 848.5,-220.33 848.5,-220.33 848.5,-224.17 844.67,-228 840.83,-228"/>
<text text-anchor="middle" x="796.5" y="-212.8" font-family="Arial" font-size="14.00" fill="#c6c5fe">models/user.js</text>
</g>
<!-- controllers/coursesController.js&#45;&gt;models/user.js -->
<g id="edge2" class="edge">
<title>controllers/coursesController.js&#45;&gt;models/user.js</title>
<path fill="none" stroke="#757575" d="M618.68,-187.03C655.02,-193.09 699.18,-200.45 734.27,-206.3"/>
<polygon fill="#757575" stroke="#757575" points="733.95,-209.79 744.39,-207.98 735.1,-202.88 733.95,-209.79"/>
</g>
<!-- models/subscriber.js -->
<g id="node7" class="node">
<title>models/subscriber.js</title>
<path fill="none" stroke="#cfffac" d="M1076.33,-126C1076.33,-126 951.67,-126 951.67,-126 947.83,-126 944,-122.17 944,-118.33 944,-118.33 944,-110.67 944,-110.67 944,-106.83 947.83,-103 951.67,-103 951.67,-103 1076.33,-103 1076.33,-103 1080.17,-103 1084,-106.83 1084,-110.67 1084,-110.67 1084,-118.33 1084,-118.33 1084,-122.17 1080.17,-126 1076.33,-126"/>
<text text-anchor="middle" x="1014" y="-110.8" font-family="Arial" font-size="14.00" fill="#cfffac">models/subscriber.js</text>
</g>
<!-- models/user.js&#45;&gt;models/subscriber.js -->
<g id="edge7" class="edge">
<title>models/user.js&#45;&gt;models/subscriber.js</title>
<path fill="none" stroke="#757575" d="M848.52,-211.89C867.77,-208.85 889.48,-203.83 908,-195.5 941.77,-180.32 974.56,-152.24 994.26,-133.46"/>
<polygon fill="#757575" stroke="#757575" points="996.91,-135.77 1001.63,-126.29 992.02,-130.76 996.91,-135.77"/>
</g>
<!-- controllers/errorController.js -->
<g id="node4" class="node">
<title>controllers/errorController.js</title>
<path fill="none" stroke="#cfffac" d="M631.83,-105C631.83,-105 465.17,-105 465.17,-105 461.33,-105 457.5,-101.17 457.5,-97.33 457.5,-97.33 457.5,-89.67 457.5,-89.67 457.5,-85.83 461.33,-82 465.17,-82 465.17,-82 631.83,-82 631.83,-82 635.67,-82 639.5,-85.83 639.5,-89.67 639.5,-89.67 639.5,-97.33 639.5,-97.33 639.5,-101.17 635.67,-105 631.83,-105"/>
<text text-anchor="middle" x="548.5" y="-89.8" font-family="Arial" font-size="14.00" fill="#cfffac">controllers/errorController.js</text>
</g>
<!-- controllers/homeController.js -->
<g id="node5" class="node">
<title>controllers/homeController.js</title>
<path fill="none" stroke="#cfffac" d="M634.83,-64C634.83,-64 462.17,-64 462.17,-64 458.33,-64 454.5,-60.17 454.5,-56.33 454.5,-56.33 454.5,-48.67 454.5,-48.67 454.5,-44.83 458.33,-41 462.17,-41 462.17,-41 634.83,-41 634.83,-41 638.67,-41 642.5,-44.83 642.5,-48.67 642.5,-48.67 642.5,-56.33 642.5,-56.33 642.5,-60.17 638.67,-64 634.83,-64"/>
<text text-anchor="middle" x="548.5" y="-48.8" font-family="Arial" font-size="14.00" fill="#cfffac">controllers/homeController.js</text>
</g>
<!-- controllers/subscribersController.js -->
<g id="node6" class="node">
<title>controllers/subscribersController.js</title>
<path fill="none" stroke="#c6c5fe" d="M900.33,-85C900.33,-85 692.67,-85 692.67,-85 688.83,-85 685,-81.17 685,-77.33 685,-77.33 685,-69.67 685,-69.67 685,-65.83 688.83,-62 692.67,-62 692.67,-62 900.33,-62 900.33,-62 904.17,-62 908,-65.83 908,-69.67 908,-69.67 908,-77.33 908,-77.33 908,-81.17 904.17,-85 900.33,-85"/>
<text text-anchor="middle" x="796.5" y="-69.8" font-family="Arial" font-size="14.00" fill="#c6c5fe">controllers/subscribersController.js</text>
</g>
<!-- controllers/subscribersController.js&#45;&gt;models/subscriber.js -->
<g id="edge3" class="edge">
<title>controllers/subscribersController.js&#45;&gt;models/subscriber.js</title>
<path fill="none" stroke="#757575" d="M858.1,-85.03C884.38,-90.03 915.32,-95.92 942.61,-101.11"/>
<polygon fill="#757575" stroke="#757575" points="942,-104.55 952.48,-102.99 943.31,-97.68 942,-104.55"/>
</g>
<!-- controllers/usersController.js -->
<g id="node8" class="node">
<title>controllers/usersController.js</title>
<path fill="none" stroke="#c6c5fe" d="M634.33,-228C634.33,-228 462.67,-228 462.67,-228 458.83,-228 455,-224.17 455,-220.33 455,-220.33 455,-212.67 455,-212.67 455,-208.83 458.83,-205 462.67,-205 462.67,-205 634.33,-205 634.33,-205 638.17,-205 642,-208.83 642,-212.67 642,-212.67 642,-220.33 642,-220.33 642,-224.17 638.17,-228 634.33,-228"/>
<text text-anchor="middle" x="548.5" y="-212.8" font-family="Arial" font-size="14.00" fill="#c6c5fe">controllers/usersController.js</text>
</g>
<!-- controllers/usersController.js&#45;&gt;models/user.js -->
<g id="edge4" class="edge">
<title>controllers/usersController.js&#45;&gt;models/user.js</title>
<path fill="none" stroke="#757575" d="M642.15,-216.5C672.83,-216.5 706.19,-216.5 733.94,-216.5"/>
<polygon fill="#757575" stroke="#757575" points="734.28,-220 744.28,-216.5 734.28,-213 734.28,-220"/>
</g>
<!-- main.js -->
<g id="node9" class="node">
<title>main.js</title>
<path fill="none" stroke="#c6c5fe" d="M52.33,-207C52.33,-207 7.67,-207 7.67,-207 3.83,-207 0,-203.17 0,-199.33 0,-199.33 0,-191.67 0,-191.67 0,-187.83 3.83,-184 7.67,-184 7.67,-184 52.33,-184 52.33,-184 56.17,-184 60,-187.83 60,-191.67 60,-191.67 60,-199.33 60,-199.33 60,-203.17 56.17,-207 52.33,-207"/>
<text text-anchor="middle" x="30" y="-191.8" font-family="Arial" font-size="14.00" fill="#c6c5fe">main.js</text>
</g>
<!-- main.js&#45;&gt;models/user.js -->
<g id="edge5" class="edge">
<title>main.js&#45;&gt;models/user.js</title>
<path fill="none" stroke="#757575" d="M60.26,-203.25C99.79,-213.28 172.61,-230.22 236,-236.5 418.66,-254.59 465.87,-248.94 649,-236.5 677.15,-234.59 708.13,-230.63 734.33,-226.74"/>
<polygon fill="#757575" stroke="#757575" points="735.12,-230.16 744.49,-225.2 734.07,-223.24 735.12,-230.16"/>
</g>
<!-- routes/index.js -->
<g id="node10" class="node">
<title>routes/index.js</title>
<path fill="none" stroke="#c6c5fe" d="M192.33,-146C192.33,-146 103.67,-146 103.67,-146 99.83,-146 96,-142.17 96,-138.33 96,-138.33 96,-130.67 96,-130.67 96,-126.83 99.83,-123 103.67,-123 103.67,-123 192.33,-123 192.33,-123 196.17,-123 200,-126.83 200,-130.67 200,-130.67 200,-138.33 200,-138.33 200,-142.17 196.17,-146 192.33,-146"/>
<text text-anchor="middle" x="148" y="-130.8" font-family="Arial" font-size="14.00" fill="#c6c5fe">routes/index.js</text>
</g>
<!-- main.js&#45;&gt;routes/index.js -->
<g id="edge6" class="edge">
<title>main.js&#45;&gt;routes/index.js</title>
<path fill="none" stroke="#757575" d="M53.09,-183.88C70.91,-174.51 96.18,-161.22 116.02,-150.79"/>
<polygon fill="#757575" stroke="#757575" points="117.77,-153.83 124.99,-146.07 114.51,-147.63 117.77,-153.83"/>
</g>
<!-- routes/apiRoutes.js -->
<g id="node11" class="node">
<title>routes/apiRoutes.js</title>
<path fill="none" stroke="#c6c5fe" d="M382.33,-187C382.33,-187 265.67,-187 265.67,-187 261.83,-187 258,-183.17 258,-179.33 258,-179.33 258,-171.67 258,-171.67 258,-167.83 261.83,-164 265.67,-164 265.67,-164 382.33,-164 382.33,-164 386.17,-164 390,-167.83 390,-171.67 390,-171.67 390,-179.33 390,-179.33 390,-183.17 386.17,-187 382.33,-187"/>
<text text-anchor="middle" x="324" y="-171.8" font-family="Arial" font-size="14.00" fill="#c6c5fe">routes/apiRoutes.js</text>
</g>
<!-- routes/index.js&#45;&gt;routes/apiRoutes.js -->
<g id="edge12" class="edge">
<title>routes/index.js&#45;&gt;routes/apiRoutes.js</title>
<path fill="none" stroke="#757575" d="M197.93,-146.03C218.5,-150.88 242.6,-156.55 264.12,-161.63"/>
<polygon fill="#757575" stroke="#757575" points="263.6,-165.1 274.13,-163.99 265.2,-158.29 263.6,-165.1"/>
</g>
<!-- routes/courseRoutes.js -->
<g id="node12" class="node">
<title>routes/courseRoutes.js</title>
<path fill="none" stroke="#c6c5fe" d="M393.83,-146C393.83,-146 254.17,-146 254.17,-146 250.33,-146 246.5,-142.17 246.5,-138.33 246.5,-138.33 246.5,-130.67 246.5,-130.67 246.5,-126.83 250.33,-123 254.17,-123 254.17,-123 393.83,-123 393.83,-123 397.67,-123 401.5,-126.83 401.5,-130.67 401.5,-130.67 401.5,-138.33 401.5,-138.33 401.5,-142.17 397.67,-146 393.83,-146"/>
<text text-anchor="middle" x="324" y="-130.8" font-family="Arial" font-size="14.00" fill="#c6c5fe">routes/courseRoutes.js</text>
</g>
<!-- routes/index.js&#45;&gt;routes/courseRoutes.js -->
<g id="edge13" class="edge">
<title>routes/index.js&#45;&gt;routes/courseRoutes.js</title>
<path fill="none" stroke="#757575" d="M200.26,-134.5C211.54,-134.5 223.79,-134.5 236.04,-134.5"/>
<polygon fill="#757575" stroke="#757575" points="236.3,-138 246.3,-134.5 236.3,-131 236.3,-138"/>
</g>
<!-- routes/errorRoutes.js -->
<g id="node13" class="node">
<title>routes/errorRoutes.js</title>
<path fill="none" stroke="#c6c5fe" d="M387.83,-105C387.83,-105 260.17,-105 260.17,-105 256.33,-105 252.5,-101.17 252.5,-97.33 252.5,-97.33 252.5,-89.67 252.5,-89.67 252.5,-85.83 256.33,-82 260.17,-82 260.17,-82 387.83,-82 387.83,-82 391.67,-82 395.5,-85.83 395.5,-89.67 395.5,-89.67 395.5,-97.33 395.5,-97.33 395.5,-101.17 391.67,-105 387.83,-105"/>
<text text-anchor="middle" x="324" y="-89.8" font-family="Arial" font-size="14.00" fill="#c6c5fe">routes/errorRoutes.js</text>
</g>
<!-- routes/index.js&#45;&gt;routes/errorRoutes.js -->
<g id="edge14" class="edge">
<title>routes/index.js&#45;&gt;routes/errorRoutes.js</title>
<path fill="none" stroke="#757575" d="M196.39,-122.96C209.23,-119.86 223.14,-116.53 236,-113.5 244.55,-111.49 253.58,-109.38 262.45,-107.33"/>
<polygon fill="#757575" stroke="#757575" points="263.42,-110.7 272.37,-105.04 261.84,-103.88 263.42,-110.7"/>
</g>
<!-- routes/homeRoutes.js -->
<g id="node14" class="node">
<title>routes/homeRoutes.js</title>
<path fill="none" stroke="#c6c5fe" d="M390.83,-64C390.83,-64 257.17,-64 257.17,-64 253.33,-64 249.5,-60.17 249.5,-56.33 249.5,-56.33 249.5,-48.67 249.5,-48.67 249.5,-44.83 253.33,-41 257.17,-41 257.17,-41 390.83,-41 390.83,-41 394.67,-41 398.5,-44.83 398.5,-48.67 398.5,-48.67 398.5,-56.33 398.5,-56.33 398.5,-60.17 394.67,-64 390.83,-64"/>
<text text-anchor="middle" x="324" y="-48.8" font-family="Arial" font-size="14.00" fill="#c6c5fe">routes/homeRoutes.js</text>
</g>
<!-- routes/index.js&#45;&gt;routes/homeRoutes.js -->
<g id="edge15" class="edge">
<title>routes/index.js&#45;&gt;routes/homeRoutes.js</title>
<path fill="none" stroke="#757575" d="M161.84,-122.84C177.97,-108.8 207.07,-85.51 236,-72.5 240.36,-70.54 244.94,-68.76 249.62,-67.14"/>
<polygon fill="#757575" stroke="#757575" points="250.84,-70.43 259.31,-64.06 248.72,-63.76 250.84,-70.43"/>
</g>
<!-- routes/subscriberRoutes.js -->
<g id="node15" class="node">
<title>routes/subscriberRoutes.js</title>
<path fill="none" stroke="#c6c5fe" d="M404.33,-23C404.33,-23 243.67,-23 243.67,-23 239.83,-23 236,-19.17 236,-15.33 236,-15.33 236,-7.67 236,-7.67 236,-3.83 239.83,0 243.67,0 243.67,0 404.33,0 404.33,0 408.17,0 412,-3.83 412,-7.67 412,-7.67 412,-15.33 412,-15.33 412,-19.17 408.17,-23 404.33,-23"/>
<text text-anchor="middle" x="324" y="-7.8" font-family="Arial" font-size="14.00" fill="#c6c5fe">routes/subscriberRoutes.js</text>
</g>
<!-- routes/index.js&#45;&gt;routes/subscriberRoutes.js -->
<g id="edge16" class="edge">
<title>routes/index.js&#45;&gt;routes/subscriberRoutes.js</title>
<path fill="none" stroke="#757575" d="M155.4,-122.79C167.88,-101.14 197.63,-54.9 236,-31.5 238.63,-29.9 241.37,-28.42 244.2,-27.07"/>
<polygon fill="#757575" stroke="#757575" points="245.63,-30.26 253.46,-23.12 242.89,-23.82 245.63,-30.26"/>
</g>
<!-- routes/userRoutes.js -->
<g id="node16" class="node">
<title>routes/userRoutes.js</title>
<path fill="none" stroke="#c6c5fe" d="M386.33,-228C386.33,-228 261.67,-228 261.67,-228 257.83,-228 254,-224.17 254,-220.33 254,-220.33 254,-212.67 254,-212.67 254,-208.83 257.83,-205 261.67,-205 261.67,-205 386.33,-205 386.33,-205 390.17,-205 394,-208.83 394,-212.67 394,-212.67 394,-220.33 394,-220.33 394,-224.17 390.17,-228 386.33,-228"/>
<text text-anchor="middle" x="324" y="-212.8" font-family="Arial" font-size="14.00" fill="#c6c5fe">routes/userRoutes.js</text>
</g>
<!-- routes/index.js&#45;&gt;routes/userRoutes.js -->
<g id="edge17" class="edge">
<title>routes/index.js&#45;&gt;routes/userRoutes.js</title>
<path fill="none" stroke="#757575" d="M162.18,-146.16C178.43,-159.93 207.42,-182.59 236,-195.5 241.26,-197.88 246.83,-200 252.5,-201.91"/>
<polygon fill="#757575" stroke="#757575" points="251.53,-205.27 262.11,-204.9 253.61,-198.59 251.53,-205.27"/>
</g>
<!-- routes/apiRoutes.js&#45;&gt;controllers/coursesController.js -->
<g id="edge8" class="edge">
<title>routes/apiRoutes.js&#45;&gt;controllers/coursesController.js</title>
<path fill="none" stroke="#757575" d="M390.25,-175.5C405.23,-175.5 421.55,-175.5 437.83,-175.5"/>
<polygon fill="#757575" stroke="#757575" points="437.94,-179 447.94,-175.5 437.94,-172 437.94,-179"/>
</g>
<!-- routes/courseRoutes.js&#45;&gt;controllers/coursesController.js -->
<g id="edge9" class="edge">
<title>routes/courseRoutes.js&#45;&gt;controllers/coursesController.js</title>
<path fill="none" stroke="#757575" d="M387.57,-146.03C414.7,-151.03 446.64,-156.92 474.82,-162.11"/>
<polygon fill="#757575" stroke="#757575" points="474.55,-165.62 485.01,-163.99 475.81,-158.73 474.55,-165.62"/>
</g>
<!-- routes/errorRoutes.js&#45;&gt;controllers/errorController.js -->
<g id="edge10" class="edge">
<title>routes/errorRoutes.js&#45;&gt;controllers/errorController.js</title>
<path fill="none" stroke="#757575" d="M395.71,-93.5C412.09,-93.5 429.83,-93.5 447.21,-93.5"/>
<polygon fill="#757575" stroke="#757575" points="447.39,-97 457.39,-93.5 447.39,-90 447.39,-97"/>
</g>
<!-- routes/homeRoutes.js&#45;&gt;controllers/homeController.js -->
<g id="edge11" class="edge">
<title>routes/homeRoutes.js&#45;&gt;controllers/homeController.js</title>
<path fill="none" stroke="#757575" d="M398.78,-52.5C413.31,-52.5 428.8,-52.5 444.09,-52.5"/>
<polygon fill="#757575" stroke="#757575" points="444.1,-56 454.1,-52.5 444.1,-49 444.1,-56"/>
</g>
<!-- routes/subscriberRoutes.js&#45;&gt;controllers/subscribersController.js -->
<g id="edge18" class="edge">
<title>routes/subscriberRoutes.js&#45;&gt;controllers/subscribersController.js</title>
<path fill="none" stroke="#757575" d="M412.23,-11.76C477.79,-13.19 569.58,-17.83 649,-31.5 684.69,-37.64 724.09,-49.22 753.03,-58.67"/>
<polygon fill="#757575" stroke="#757575" points="752.22,-62.09 762.81,-61.91 754.42,-55.44 752.22,-62.09"/>
</g>
<!-- routes/userRoutes.js&#45;&gt;controllers/usersController.js -->
<g id="edge19" class="edge">
<title>routes/userRoutes.js&#45;&gt;controllers/usersController.js</title>
<path fill="none" stroke="#757575" d="M394.18,-216.5C410.18,-216.5 427.53,-216.5 444.63,-216.5"/>
<polygon fill="#757575" stroke="#757575" points="444.65,-220 454.65,-216.5 444.65,-213 444.65,-220"/>
</g>
</g>
</svg>
