<?xml version="1.0" encoding="UTF-8" standalone="no"?>
<!DOCTYPE svg PUBLIC "-//W3C//DTD SVG 1.1//EN"
 "http://www.w3.org/Graphics/SVG/1.1/DTD/svg11.dtd">
<!-- Generated by graphviz version 2.46.1 (20210213.1702)
 -->
<!-- Title: G Pages: 1 -->
<svg width="775pt" height="263pt"
 viewBox="0.00 0.00 775.20 263.10" xmlns="http://www.w3.org/2000/svg" xmlns:xlink="http://www.w3.org/1999/xlink">
<g id="graph0" class="graph" transform="scale(1 1) rotate(0) translate(21.6 241.5)">
<title>G</title>
<polygon fill="#111111" stroke="transparent" points="-21.6,21.6 -21.6,-241.5 753.6,-241.5 753.6,21.6 -21.6,21.6"/>
<!-- controllers/coursesController.js -->
<g id="node1" class="node">
<title>controllers/coursesController.js</title>
<path fill="none" stroke="#c6c5fe" d="M289.33,-219.9C289.33,-219.9 103.67,-219.9 103.67,-219.9 99.83,-219.9 96,-216.07 96,-212.23 96,-212.23 96,-204.57 96,-204.57 96,-200.73 99.83,-196.9 103.67,-196.9 103.67,-196.9 289.33,-196.9 289.33,-196.9 293.17,-196.9 297,-200.73 297,-204.57 297,-204.57 297,-212.23 297,-212.23 297,-216.07 293.17,-219.9 289.33,-219.9"/>
<text text-anchor="middle" x="196.5" y="-204.7" font-family="Arial" font-size="14.00" fill="#c6c5fe">controllers/coursesController.js</text>
</g>
<!-- models/course.js -->
<g id="node2" class="node">
<title>models/course.js</title>
<path fill="none" stroke="#cfffac" d="M496.33,-219.9C496.33,-219.9 392.67,-219.9 392.67,-219.9 388.83,-219.9 385,-216.07 385,-212.23 385,-212.23 385,-204.57 385,-204.57 385,-200.73 388.83,-196.9 392.67,-196.9 392.67,-196.9 496.33,-196.9 496.33,-196.9 500.17,-196.9 504,-200.73 504,-204.57 504,-204.57 504,-212.23 504,-212.23 504,-216.07 500.17,-219.9 496.33,-219.9"/>
<text text-anchor="middle" x="444.5" y="-204.7" font-family="Arial" font-size="14.00" fill="#cfffac">models/course.js</text>
</g>
<!-- controllers/coursesController.js&#45;&gt;models/course.js -->
<g id="edge1" class="edge">
<title>controllers/coursesController.js&#45;&gt;models/course.js</title>
<path fill="none" stroke="#757575" d="M297.2,-208.4C323.19,-208.4 350.62,-208.4 374.61,-208.4"/>
<polygon fill="#757575" stroke="#757575" points="374.67,-211.9 384.67,-208.4 374.67,-204.9 374.67,-211.9"/>
</g>
<!-- controllers/errorController.js -->
<g id="node3" class="node">
<title>controllers/errorController.js</title>
<path fill="none" stroke="#cfffac" d="M279.83,-178.9C279.83,-178.9 113.17,-178.9 113.17,-178.9 109.33,-178.9 105.5,-175.07 105.5,-171.23 105.5,-171.23 105.5,-163.57 105.5,-163.57 105.5,-159.73 109.33,-155.9 113.17,-155.9 113.17,-155.9 279.83,-155.9 279.83,-155.9 283.67,-155.9 287.5,-159.73 287.5,-163.57 287.5,-163.57 287.5,-171.23 287.5,-171.23 287.5,-175.07 283.67,-178.9 279.83,-178.9"/>
<text text-anchor="middle" x="196.5" y="-163.7" font-family="Arial" font-size="14.00" fill="#cfffac">controllers/errorController.js</text>
</g>
<!-- controllers/homeController.js -->
<g id="node4" class="node">
<title>controllers/homeController.js</title>
<path fill="none" stroke="#cfffac" d="M282.83,-137.9C282.83,-137.9 110.17,-137.9 110.17,-137.9 106.33,-137.9 102.5,-134.07 102.5,-130.23 102.5,-130.23 102.5,-122.57 102.5,-122.57 102.5,-118.73 106.33,-114.9 110.17,-114.9 110.17,-114.9 282.83,-114.9 282.83,-114.9 286.67,-114.9 290.5,-118.73 290.5,-122.57 290.5,-122.57 290.5,-130.23 290.5,-130.23 290.5,-134.07 286.67,-137.9 282.83,-137.9"/>
<text text-anchor="middle" x="196.5" y="-122.7" font-family="Arial" font-size="14.00" fill="#cfffac">controllers/homeController.js</text>
</g>
<!-- controllers/subscribersController.js -->
<g id="node5" class="node">
<title>controllers/subscribersController.js</title>
<path fill="none" stroke="#c6c5fe" d="M548.33,-97.9C548.33,-97.9 340.67,-97.9 340.67,-97.9 336.83,-97.9 333,-94.07 333,-90.23 333,-90.23 333,-82.57 333,-82.57 333,-78.73 336.83,-74.9 340.67,-74.9 340.67,-74.9 548.33,-74.9 548.33,-74.9 552.17,-74.9 556,-78.73 556,-82.57 556,-82.57 556,-90.23 556,-90.23 556,-94.07 552.17,-97.9 548.33,-97.9"/>
<text text-anchor="middle" x="444.5" y="-82.7" font-family="Arial" font-size="14.00" fill="#c6c5fe">controllers/subscribersController.js</text>
</g>
<!-- models/subscriber.js -->
<g id="node6" class="node">
<title>models/subscriber.js</title>
<path fill="none" stroke="#cfffac" d="M724.33,-76.9C724.33,-76.9 599.67,-76.9 599.67,-76.9 595.83,-76.9 592,-73.07 592,-69.23 592,-69.23 592,-61.57 592,-61.57 592,-57.73 595.83,-53.9 599.67,-53.9 599.67,-53.9 724.33,-53.9 724.33,-53.9 728.17,-53.9 732,-57.73 732,-61.57 732,-61.57 732,-69.23 732,-69.23 732,-73.07 728.17,-76.9 724.33,-76.9"/>
<text text-anchor="middle" x="662" y="-61.7" font-family="Arial" font-size="14.00" fill="#cfffac">models/subscriber.js</text>
</g>
<!-- controllers/subscribersController.js&#45;&gt;models/subscriber.js -->
<g id="edge2" class="edge">
<title>controllers/subscribersController.js&#45;&gt;models/subscriber.js</title>
<path fill="none" stroke="#757575" d="M556.09,-75.62C564.76,-74.78 573.41,-73.94 581.8,-73.12"/>
<polygon fill="#757575" stroke="#757575" points="582.29,-76.59 591.9,-72.13 581.61,-69.62 582.29,-76.59"/>
</g>
<!-- controllers/usersController.js -->
<g id="node7" class="node">
<title>controllers/usersController.js</title>
<path fill="none" stroke="#c6c5fe" d="M282.33,-57.9C282.33,-57.9 110.67,-57.9 110.67,-57.9 106.83,-57.9 103,-54.07 103,-50.23 103,-50.23 103,-42.57 103,-42.57 103,-38.73 106.83,-34.9 110.67,-34.9 110.67,-34.9 282.33,-34.9 282.33,-34.9 286.17,-34.9 290,-38.73 290,-42.57 290,-42.57 290,-50.23 290,-50.23 290,-54.07 286.17,-57.9 282.33,-57.9"/>
<text text-anchor="middle" x="196.5" y="-42.7" font-family="Arial" font-size="14.00" fill="#c6c5fe">controllers/usersController.js</text>
</g>
<!-- models/user.js -->
<g id="node8" class="node">
<title>models/user.js</title>
<path fill="none" stroke="#c6c5fe" d="M488.83,-56.9C488.83,-56.9 400.17,-56.9 400.17,-56.9 396.33,-56.9 392.5,-53.07 392.5,-49.23 392.5,-49.23 392.5,-41.57 392.5,-41.57 392.5,-37.73 396.33,-33.9 400.17,-33.9 400.17,-33.9 488.83,-33.9 488.83,-33.9 492.67,-33.9 496.5,-37.73 496.5,-41.57 496.5,-41.57 496.5,-49.23 496.5,-49.23 496.5,-53.07 492.67,-56.9 488.83,-56.9"/>
<text text-anchor="middle" x="444.5" y="-41.7" font-family="Arial" font-size="14.00" fill="#c6c5fe">models/user.js</text>
</g>
<!-- controllers/usersController.js&#45;&gt;models/user.js -->
<g id="edge3" class="edge">
<title>controllers/usersController.js&#45;&gt;models/user.js</title>
<path fill="none" stroke="#757575" d="M290.15,-46.02C320.83,-45.9 354.19,-45.76 381.94,-45.65"/>
<polygon fill="#757575" stroke="#757575" points="382.29,-49.15 392.28,-45.61 382.27,-42.15 382.29,-49.15"/>
</g>
<!-- models/user.js&#45;&gt;models/subscriber.js -->
<g id="edge10" class="edge">
<title>models/user.js&#45;&gt;models/subscriber.js</title>
<path fill="none" stroke="#757575" d="M496.57,-50.14C521.96,-52.5 553.21,-55.4 581.63,-58.03"/>
<polygon fill="#757575" stroke="#757575" points="581.67,-61.55 591.95,-58.99 582.32,-54.58 581.67,-61.55"/>
</g>
<!-- main.js -->
<g id="node9" class="node">
<title>main.js</title>
<path fill="none" stroke="#c6c5fe" d="M52.33,-117.9C52.33,-117.9 7.67,-117.9 7.67,-117.9 3.83,-117.9 0,-114.07 0,-110.23 0,-110.23 0,-102.57 0,-102.57 0,-98.73 3.83,-94.9 7.67,-94.9 7.67,-94.9 52.33,-94.9 52.33,-94.9 56.17,-94.9 60,-98.73 60,-102.57 60,-102.57 60,-110.23 60,-110.23 60,-114.07 56.17,-117.9 52.33,-117.9"/>
<text text-anchor="middle" x="30" y="-102.7" font-family="Arial" font-size="14.00" fill="#c6c5fe">main.js</text>
</g>
<!-- main.js&#45;&gt;controllers/coursesController.js -->
<g id="edge4" class="edge">
<title>main.js&#45;&gt;controllers/coursesController.js</title>
<path fill="none" stroke="#757575" d="M36.77,-118.07C46.39,-136.22 67.49,-170.94 96,-188.4 98.62,-190 101.35,-191.48 104.15,-192.85"/>
<polygon fill="#757575" stroke="#757575" points="102.77,-196.06 113.33,-196.81 105.54,-189.64 102.77,-196.06"/>
</g>
<!-- main.js&#45;&gt;controllers/errorController.js -->
<g id="edge5" class="edge">
<title>main.js&#45;&gt;controllers/errorController.js</title>
<path fill="none" stroke="#757575" d="M45.9,-118.03C58.55,-127.34 77.54,-140.02 96,-147.4 101.34,-149.54 106.95,-151.46 112.65,-153.18"/>
<polygon fill="#757575" stroke="#757575" points="111.75,-156.56 122.32,-155.89 113.64,-149.82 111.75,-156.56"/>
</g>
<!-- main.js&#45;&gt;controllers/homeController.js -->
<g id="edge6" class="edge">
<title>main.js&#45;&gt;controllers/homeController.js</title>
<path fill="none" stroke="#757575" d="M60.03,-109.93C69.47,-111.08 80.55,-112.42 92.23,-113.85"/>
<polygon fill="#757575" stroke="#757575" points="91.82,-117.32 102.17,-115.05 92.67,-110.37 91.82,-117.32"/>
</g>
<!-- main.js&#45;&gt;controllers/subscribersController.js -->
<g id="edge7" class="edge">
<title>main.js&#45;&gt;controllers/subscribersController.js</title>
<path fill="none" stroke="#757575" d="M60.01,-104.99C113.74,-102.39 231.57,-96.68 322.54,-92.26"/>
<polygon fill="#757575" stroke="#757575" points="322.83,-95.75 332.65,-91.77 322.49,-88.76 322.83,-95.75"/>
</g>
<!-- main.js&#45;&gt;controllers/usersController.js -->
<g id="edge8" class="edge">
<title>main.js&#45;&gt;controllers/usersController.js</title>
<path fill="none" stroke="#757575" d="M50.37,-94.79C63.02,-87.58 80.08,-78.55 96,-72.4 107.63,-67.91 120.32,-63.93 132.62,-60.52"/>
<polygon fill="#757575" stroke="#757575" points="133.63,-63.88 142.38,-57.91 131.82,-57.11 133.63,-63.88"/>
</g>
<!-- main.js&#45;&gt;models/user.js -->
<g id="edge9" class="edge">
<title>main.js&#45;&gt;models/user.js</title>
<path fill="none" stroke="#757575" d="M36.14,-94.8C45.15,-76.09 65.76,-39.91 96,-25.4 197.06,23.08 334.09,-9.19 401.92,-30.65"/>
<polygon fill="#757575" stroke="#757575" points="401.22,-34.1 411.81,-33.85 403.38,-27.44 401.22,-34.1"/>
</g>
</g>
</svg>
